<svg width="1080" height="1080" viewBox="0 0 1080 1080" fill="none" xmlns="http://www.w3.org/2000/svg">
<g clip-path="url(#clip0_4_786)">
<path d="M128.688 354.736C128.688 354.736 128.368 354.608 127.728 354.352C127.088 354.16 126.384 353.968 125.616 353.776C124.912 353.584 124.368 353.488 123.984 353.488C122.96 353.232 122.224 352.656 121.776 351.76C121.328 350.928 121.232 350 121.488 348.976C121.744 348.72 121.936 348.176 122.064 347.344C122.192 346.512 122.256 345.84 122.256 345.328C122.512 344.816 122.672 344.464 122.736 344.272C122.8 344.016 122.96 343.376 123.216 342.352C123.408 341.264 123.728 339.76 124.176 337.84C124.688 335.856 125.232 333.744 125.808 331.504C126.448 329.264 127.056 327.12 127.632 325.072C128.208 323.024 128.72 321.296 129.168 319.888C129.68 318.48 130.032 317.68 130.224 317.488C130.224 317.488 130.224 317.392 130.224 317.2C130.224 316.944 130.224 316.688 130.224 316.432C130.224 316.432 130.256 316.144 130.32 315.568C130.448 314.928 130.768 314.224 131.28 313.456C131.536 312.752 131.76 311.984 131.952 311.152C132.144 310.32 132.24 309.776 132.24 309.52C132.496 309.2 132.848 308.432 133.296 307.216C133.808 305.936 134.288 304.688 134.736 303.472C135.12 302.448 135.536 301.36 135.984 300.208C136.496 299.056 136.912 298.064 137.232 297.232C137.616 296.4 137.808 295.984 137.808 295.984C137.808 295.728 137.808 295.6 137.808 295.6C137.808 295.536 137.808 295.504 137.808 295.504C138.064 295.248 138.672 293.968 139.632 291.664C140.656 289.296 142.032 286.256 143.76 282.544C144.016 282.032 144.4 281.232 144.912 280.144C145.424 278.992 145.68 278.288 145.68 278.032C146.64 277.072 147.568 276.752 148.464 277.072C149.424 277.328 150.256 277.872 150.96 278.704C151.728 279.536 152.272 280.304 152.592 281.008L153.552 282.544L150 289.456C148.976 291.248 148.08 292.88 147.312 294.352C146.608 295.824 146.256 296.688 146.256 296.944C146.256 296.944 146.096 297.328 145.776 298.096C145.52 298.864 145.2 299.856 144.816 301.072C144.432 302.224 144.048 303.376 143.664 304.528C142.96 306.512 142.288 308.176 141.648 309.52C141.008 310.8 140.688 311.568 140.688 311.824C140.688 311.696 141.328 311.6 142.608 311.536C143.952 311.472 145.616 311.44 147.6 311.44C149.584 311.44 151.6 311.44 153.648 311.44C155.76 311.376 157.648 311.344 159.312 311.344C160.976 311.28 162.128 311.184 162.768 311.056L167.76 310.576L170.448 302.032C170.96 300.24 171.632 298.064 172.464 295.504C173.296 292.944 174.032 290.768 174.672 288.976C175.696 286.032 176.784 283.984 177.936 282.832C179.088 281.616 180.048 281.008 180.816 281.008C181.008 281.008 181.36 281.2 181.872 281.584C182.448 281.904 183.024 282.288 183.6 282.736C184.176 283.184 184.528 283.6 184.656 283.984C185.424 284.688 185.776 285.488 185.712 286.384C185.712 287.28 185.2 288.464 184.176 289.936C183.152 291.664 182.288 293.552 181.584 295.6C180.944 297.584 180.368 299.216 179.856 300.496C179.856 301.264 179.76 301.904 179.568 302.416C179.376 302.864 179.152 303.216 178.896 303.472C178.768 303.6 178.512 304.08 178.128 304.912C177.744 305.744 177.392 306.576 177.072 307.408C176.752 308.24 176.592 308.752 176.592 308.944C176.592 309.392 176.496 309.936 176.304 310.576C176.112 311.216 175.888 311.664 175.632 311.92C175.504 312.304 175.216 313.264 174.768 314.8C174.32 316.336 173.808 318.16 173.232 320.272C172.656 322.32 172.048 324.336 171.408 326.32C170.768 328.24 170.192 329.84 169.68 331.12C169.68 331.568 169.52 332.144 169.2 332.848C168.88 333.488 168.72 334.064 168.72 334.576C168.464 335.344 168.144 336.304 167.76 337.456C167.376 338.608 167.184 339.344 167.184 339.664C166.864 341.136 166.512 342.832 166.128 344.752C165.808 346.672 165.52 348.368 165.264 349.84C165.072 351.312 164.976 352.144 164.976 352.336C163.312 352.528 162.064 352.304 161.232 351.664C160.4 351.024 159.632 350.576 158.928 350.32C157.712 349.616 156.976 348.72 156.72 347.632C156.528 346.608 156.784 345.36 157.488 343.888C157.808 343.376 158.192 342.128 158.64 340.144C159.152 338.096 159.664 336.08 160.176 334.096C160.56 333.136 160.976 331.92 161.424 330.448C161.872 328.976 162.288 327.536 162.672 326.128C163.12 324.656 163.504 323.408 163.824 322.384C164.144 321.36 164.368 320.784 164.496 320.656C164.496 320.4 164.496 320.176 164.496 319.984C164.496 319.792 164.496 319.696 164.496 319.696C164.368 319.568 163.728 319.472 162.576 319.408C161.424 319.28 159.952 319.248 158.16 319.312C156.432 319.312 154.544 319.376 152.496 319.504C150.448 319.568 148.496 319.728 146.64 319.984C145.936 319.984 144.912 319.984 143.568 319.984C142.288 319.984 141.392 319.984 140.88 319.984C140.176 319.984 139.568 319.984 139.056 319.984C138.608 319.984 138.384 319.984 138.384 319.984C138.256 320.176 138 320.816 137.616 321.904C137.296 322.992 136.88 324.304 136.368 325.84C135.92 327.376 135.44 328.944 134.928 330.544C134.48 332.144 134.064 333.616 133.68 334.96C133.36 336.24 133.136 337.168 133.008 337.744C132.752 338.896 132.4 340.336 131.952 342.064C131.568 343.792 131.12 345.552 130.608 347.344C130.16 349.2 129.744 350.8 129.36 352.144C129.04 353.488 128.816 354.352 128.688 354.736ZM197.253 344.08C195.333 345.168 193.285 345.808 191.109 346C188.997 346.128 187.013 345.84 185.157 345.136C183.301 344.368 181.797 343.248 180.645 341.776C180.005 340.944 179.397 339.632 178.821 337.84C178.245 335.984 178.149 333.488 178.533 330.352C178.917 327.408 179.813 324.432 181.221 321.424C182.693 318.416 184.485 315.76 186.597 313.456C188.709 311.152 191.013 309.584 193.509 308.752C194.405 308.432 195.301 308.208 196.197 308.08C197.157 307.888 198.405 307.856 199.941 307.984C201.413 308.176 202.725 308.56 203.877 309.136C205.029 309.648 205.861 310.224 206.373 310.864C207.397 311.888 208.069 312.88 208.389 313.84C208.709 314.8 208.837 315.728 208.773 316.624C208.453 318.672 207.525 320.88 205.989 323.248C204.517 325.616 202.437 327.376 199.749 328.528C198.661 328.976 197.381 329.264 195.909 329.392C194.437 329.52 192.421 329.328 189.861 328.816C188.325 328.496 187.301 328.656 186.789 329.296C186.341 329.936 186.149 331.184 186.213 333.04C186.341 334.192 186.597 335.216 186.981 336.112C187.429 336.944 188.229 337.52 189.381 337.84C190.853 338.096 191.909 338.128 192.549 337.936C193.189 337.68 193.989 337.328 194.949 336.88C195.461 336.56 195.941 336.208 196.389 335.824C196.901 335.44 197.381 335.056 197.829 334.672C198.341 334.288 198.757 334 199.077 333.808C199.397 333.552 199.717 333.392 200.037 333.328C200.357 333.264 200.677 333.232 200.997 333.232C201.701 333.296 202.373 333.68 203.013 334.384C203.653 335.088 204.069 335.76 204.261 336.4C204.261 336.912 203.941 337.648 203.301 338.608C202.661 339.504 201.797 340.464 200.709 341.488C199.685 342.448 198.533 343.312 197.253 344.08ZM196.005 322.672C196.453 322.48 197.093 322.032 197.925 321.328C198.821 320.624 199.621 319.888 200.325 319.12C201.029 318.288 201.381 317.648 201.381 317.2C201.381 316.496 200.901 315.888 199.941 315.376C199.045 314.864 197.861 314.768 196.389 315.088C195.877 315.216 195.269 315.568 194.565 316.144C193.861 316.72 193.157 317.392 192.453 318.16C191.749 318.864 191.141 319.568 190.629 320.272C190.117 320.912 189.765 321.424 189.573 321.808C189.829 322.128 190.341 322.384 191.109 322.576C191.877 322.768 192.709 322.864 193.605 322.864C194.565 322.864 195.365 322.8 196.005 322.672ZM219.332 344.656C218.82 344.784 218.148 344.848 217.316 344.848C216.484 344.784 215.748 344.688 215.108 344.56C214.532 344.368 214.244 344.176 214.244 343.984C214.244 343.664 214.084 343.504 213.764 343.504C213.764 343.504 213.412 343.248 212.708 342.736C212.004 342.16 211.364 341.744 210.788 341.488C210.212 340.592 209.828 339.568 209.636 338.416C209.508 337.2 209.892 335.088 210.788 332.08C210.852 330.032 211.428 327.888 212.516 325.648C213.604 323.344 214.98 321.104 216.644 318.928C218.308 316.752 220.036 314.832 221.828 313.168C223.62 311.44 225.22 310.16 226.628 309.328C227.524 308.432 228.708 307.952 230.18 307.888C231.716 307.824 233.06 308.112 234.212 308.752C234.852 309.072 235.556 309.712 236.324 310.672C237.092 311.632 237.828 312.656 238.532 313.744C239.236 314.768 239.78 315.696 240.164 316.528C240.356 317.232 240.516 317.872 240.644 318.448C240.836 318.96 240.964 319.6 241.028 320.368C241.092 321.136 241.028 322.288 240.836 323.824C240.516 324.976 240.228 326.16 239.972 327.376C239.78 328.528 239.684 329.712 239.684 330.928C239.556 332.144 239.684 333.008 240.068 333.52C240.516 334.032 241.156 334.064 241.988 333.616C242.756 333.232 243.556 333.2 244.388 333.52C245.22 333.776 245.796 334.288 246.116 335.056C246.5 335.76 246.404 336.688 245.828 337.84C245.444 338.672 244.836 339.472 244.004 340.24C243.172 341.008 242.244 341.648 241.22 342.16C240.196 342.608 239.204 342.832 238.244 342.832C237.54 342.832 236.836 342.576 236.132 342.064C235.428 341.488 234.788 340.72 234.212 339.76C233.636 338.8 233.156 337.744 232.772 336.592L232.196 334.384L228.74 337.552C227.908 338.448 227.076 339.28 226.244 340.048C225.476 340.752 224.996 341.264 224.804 341.584C224.484 342.16 223.844 342.672 222.884 343.12C221.988 343.568 220.804 344.08 219.332 344.656ZM221.924 335.44C223.012 334.8 223.94 334.032 224.708 333.136C225.54 332.24 226.34 331.248 227.108 330.16C227.876 329.008 228.708 327.792 229.604 326.512C230.692 325.04 231.46 323.856 231.908 322.96C232.42 322.064 232.804 321.104 233.06 320.08C232.804 319.376 232.452 318.64 232.004 317.872C231.556 317.04 231.108 316.592 230.66 316.528C229.764 316.528 228.676 317.072 227.396 318.16C226.18 319.248 224.836 320.816 223.364 322.864C223.108 323.184 222.788 323.696 222.404 324.4C222.02 325.104 221.636 325.776 221.252 326.416C220.932 326.992 220.708 327.376 220.58 327.568C220.388 327.824 220.1 328.432 219.716 329.392C219.396 330.288 219.108 331.216 218.852 332.176C218.596 333.072 218.468 333.712 218.468 334.096C218.468 334.48 218.5 334.896 218.564 335.344C218.692 335.792 219.012 336.08 219.524 336.208C220.036 336.336 220.836 336.08 221.924 335.44ZM254.195 347.056C252.979 347.376 251.891 347.024 250.931 346C249.971 345.04 249.299 343.6 248.915 341.68C248.531 339.76 248.595 337.616 249.107 335.248C249.427 334.48 249.683 333.744 249.875 333.04C250.067 332.272 250.163 331.664 250.163 331.216C250.291 330.576 250.547 329.648 250.931 328.432C251.315 327.152 251.731 325.84 252.179 324.496C252.627 323.152 253.043 321.968 253.427 320.944C253.875 319.856 254.163 319.184 254.291 318.928C254.547 318.928 254.771 318.704 254.963 318.256C255.155 317.808 255.251 317.36 255.251 316.912C255.251 316.4 255.347 315.824 255.539 315.184C255.795 314.544 256.051 314.096 256.307 313.84C256.307 313.52 256.371 313.168 256.499 312.784C256.691 312.336 256.787 311.984 256.787 311.728C256.787 311.472 256.851 311.216 256.979 310.96C257.171 310.704 257.267 310.448 257.267 310.192C257.715 309.36 258.291 308.048 258.995 306.256C259.763 304.4 260.563 302.352 261.395 300.112C262.291 297.872 263.123 295.664 263.891 293.488C264.659 291.312 265.267 289.488 265.715 288.016C266.227 286.48 266.483 285.552 266.483 285.232C266.483 284.72 266.675 284.24 267.059 283.792C267.443 283.344 267.891 283.12 268.403 283.12C268.595 282.928 269.043 282.8 269.747 282.736C270.451 282.608 270.931 282.544 271.187 282.544C271.187 282.544 271.315 282.672 271.571 282.928C271.827 283.184 272.211 283.568 272.723 284.08C273.235 284.528 273.715 285.04 274.163 285.616C274.675 286.192 274.931 286.864 274.931 287.632C274.931 288.464 274.803 289.264 274.547 290.032C274.355 290.8 273.971 291.856 273.395 293.2C272.819 294.48 271.923 296.4 270.707 298.96C270.195 300.24 269.651 301.456 269.075 302.608C268.499 303.696 268.211 304.368 268.211 304.624C268.211 304.88 268.083 305.264 267.827 305.776C267.635 306.288 267.411 306.928 267.155 307.696C266.899 308.208 266.547 308.976 266.099 310C265.651 310.96 265.171 312.016 264.659 313.168C264.211 314.256 263.827 315.216 263.507 316.048C263.187 316.816 263.027 317.264 263.027 317.392C263.027 317.648 262.995 317.904 262.931 318.16C262.931 318.416 262.803 318.672 262.547 318.928C262.291 318.928 262.131 319.12 262.067 319.504C262.067 319.824 262.067 319.984 262.067 319.984C262.067 320.624 261.555 322.32 260.531 325.072C259.507 328.592 258.547 331.824 257.651 334.768C256.819 337.712 256.403 340.08 256.403 341.872C256.403 343.408 256.147 344.592 255.635 345.424C255.187 346.256 254.707 346.8 254.195 347.056ZM279.705 346.576C278.809 346.32 277.913 345.872 277.017 345.232C276.121 344.592 275.193 343.856 274.233 343.024C273.465 342 272.921 341.072 272.601 340.24C272.281 339.344 272.089 338.32 272.025 337.168C272.025 335.952 272.025 334.416 272.025 332.56C272.025 331.792 272.153 330.704 272.409 329.296C272.729 327.888 273.049 326.416 273.369 324.88C273.753 323.344 274.105 322 274.425 320.848C274.745 319.632 274.937 318.832 275.001 318.448C275.193 317.616 274.873 317.136 274.041 317.008C273.209 316.88 272.281 316.848 271.257 316.912C270.297 316.912 269.657 316.816 269.337 316.624C269.081 316.56 268.953 316.24 268.953 315.664C268.953 315.024 268.953 314.704 268.953 314.704C268.953 314.448 268.825 314.288 268.569 314.224C268.313 314.096 268.089 313.872 267.897 313.552C267.769 313.296 267.929 312.816 268.377 312.112C268.825 311.408 269.401 310.992 270.105 310.864C270.681 310.736 271.545 310.64 272.697 310.576C273.849 310.448 275.001 310.224 276.153 309.904C277.369 309.52 278.297 308.944 278.937 308.176C279.513 306.768 280.153 305.264 280.857 303.664C281.561 302 282.233 300.56 282.873 299.344C283.513 298.064 283.961 297.264 284.217 296.944C285.305 296.368 286.425 296.144 287.577 296.272C288.729 296.336 289.625 296.88 290.265 297.904C290.585 298.352 290.841 298.672 291.033 298.864C291.289 299.056 291.385 299.344 291.321 299.728C291.321 300.112 291.065 300.816 290.553 301.84C290.105 302.8 289.337 304.304 288.249 306.352C287.929 306.992 287.641 307.568 287.385 308.08C287.129 308.528 287.001 308.752 287.001 308.752C287.257 308.816 287.641 308.848 288.153 308.848C288.665 308.848 289.305 308.816 290.073 308.752C290.777 308.624 291.545 308.528 292.377 308.464C293.209 308.336 293.945 308.336 294.585 308.464C296.057 308.464 297.145 308.88 297.849 309.712C298.553 310.544 298.937 311.6 299.001 312.88C299.129 313.584 298.873 314.192 298.233 314.704C297.593 315.216 296.409 315.472 294.681 315.472C294.105 315.472 293.273 315.504 292.185 315.568C291.097 315.632 289.977 315.696 288.825 315.76C287.673 315.824 286.681 315.92 285.849 316.048C285.081 316.112 284.697 316.208 284.697 316.336C284.505 316.464 284.185 316.976 283.737 317.872C283.353 318.704 282.937 319.728 282.489 320.944C282.105 322.16 281.753 323.312 281.433 324.4C280.985 326.576 280.665 328.688 280.473 330.736C280.281 332.784 280.249 334.576 280.377 336.112C280.569 337.584 280.953 338.64 281.529 339.28C282.105 339.856 282.969 339.856 284.121 339.28C285.337 338.64 286.457 337.904 287.481 337.072C288.633 336.112 289.625 335.824 290.457 336.208C291.289 336.528 291.801 337.232 291.993 338.32C292.249 339.344 291.961 340.464 291.129 341.68C290.361 342.896 289.273 343.92 287.865 344.752C286.457 345.584 285.017 346.16 283.545 346.48C282.073 346.864 280.793 346.896 279.705 346.576ZM333.566 345.328C332.35 345.648 331.07 345.872 329.726 346C328.446 346.192 327.326 345.808 326.366 344.848C325.79 343.952 325.278 343.152 324.83 342.448C324.382 341.744 324.094 340.496 323.966 338.704C323.902 337.488 323.966 336.176 324.158 334.768C324.414 333.296 324.51 332.24 324.446 331.6C324.958 329.232 325.086 327.536 324.83 326.512C324.638 325.488 324.382 324.976 324.062 324.976C323.358 324.848 322.238 325.36 320.702 326.512C319.23 327.664 317.47 329.296 315.422 331.408C313.438 333.456 311.294 335.792 308.99 338.416C307.774 340.08 306.878 341.328 306.302 342.16C305.79 342.928 305.406 343.312 305.15 343.312C303.998 343.312 302.942 343.12 301.982 342.736C301.022 342.352 300.254 341.808 299.678 341.104C299.102 340.4 298.75 339.664 298.622 338.896C298.622 338.64 298.782 337.968 299.102 336.88C299.422 335.728 299.806 334.416 300.254 332.944C300.702 331.472 301.118 330.096 301.502 328.816C301.95 327.536 302.27 326.64 302.462 326.128C303.038 324.464 303.71 322.448 304.478 320.08C305.31 317.648 306.046 315.504 306.686 313.648C306.942 312.816 307.39 311.632 308.03 310.096C308.67 308.496 309.31 306.896 309.95 305.296C310.59 303.696 311.038 302.512 311.294 301.744C311.486 301.232 311.838 300.336 312.35 299.056C312.862 297.712 313.406 296.24 313.982 294.64C314.622 293.04 315.198 291.568 315.71 290.224C316.286 288.816 316.67 287.792 316.862 287.152C316.798 286.576 316.83 286.064 316.958 285.616C317.15 285.104 317.342 284.72 317.534 284.464C317.79 284.464 318.078 284.464 318.398 284.464C318.718 284.4 318.878 284.368 318.878 284.368C318.878 284.24 319.294 284.368 320.126 284.752C321.022 285.136 321.886 285.616 322.718 286.192C323.614 286.704 324.062 287.152 324.062 287.536C324.382 288.368 324.414 289.456 324.158 290.8C323.902 292.08 323.23 294.032 322.142 296.656C321.438 297.68 320.734 299.216 320.03 301.264C319.39 303.312 318.75 305.04 318.11 306.448C317.854 306.896 317.47 307.696 316.958 308.848C316.51 309.936 315.966 311.248 315.326 312.784C314.75 314.256 314.174 315.824 313.598 317.488C313.022 319.152 312.51 320.784 312.062 322.384C311.422 323.92 311.198 324.944 311.39 325.456C311.582 325.968 312.35 325.392 313.694 323.728C315.486 321.808 317.15 320.08 318.686 318.544C320.286 317.008 321.758 315.792 323.102 314.896C324.51 313.936 325.758 313.52 326.846 313.648C327.422 313.776 328.158 314.192 329.054 314.896C330.014 315.536 330.91 316.304 331.742 317.2C332.638 318.032 333.214 318.832 333.47 319.6C333.726 320.496 333.886 321.36 333.95 322.192C334.078 323.024 334.11 324.208 334.046 325.744C333.982 327.216 333.822 329.424 333.566 332.368C333.182 334.544 332.926 336.112 332.798 337.072C332.67 337.968 332.702 338.608 332.894 338.992C333.15 339.376 333.534 339.792 334.046 340.24C335.006 341.008 335.39 341.936 335.198 343.024C335.006 344.048 334.462 344.816 333.566 345.328ZM378.598 351.088C377.446 351.152 376.486 350.608 375.718 349.456C374.95 348.304 374.598 347.344 374.662 346.576C374.726 345.552 375.014 344.08 375.526 342.16C376.038 340.24 376.614 338.288 377.254 336.304C377.894 334.32 378.47 332.752 378.982 331.6C379.238 330.576 379.462 329.68 379.654 328.912C379.91 328.08 380.07 327.536 380.134 327.28C380.326 327.024 380.614 326.352 380.998 325.264C381.446 324.176 381.798 323.12 382.054 322.096C382.182 321.584 382.438 320.624 382.822 319.216C383.27 317.744 383.782 316.048 384.358 314.128C384.998 312.208 385.606 310.32 386.182 308.464C386.822 306.608 387.366 304.976 387.814 303.568C388.262 302.16 388.55 301.232 388.678 300.784C389.19 300.016 389.574 299.28 389.83 298.576C390.086 297.872 390.246 297.392 390.31 297.136C390.694 296.88 390.918 296.56 390.982 296.176C391.046 295.728 391.078 295.376 391.078 295.12C391.078 294.8 391.174 294.544 391.366 294.352C391.622 294.16 391.75 293.936 391.75 293.68C392.006 293.488 392.166 293.456 392.23 293.584C392.294 293.712 392.486 293.616 392.806 293.296L393.286 290.032L401.83 289.936C401.702 290.704 401.51 291.664 401.254 292.816C400.998 293.904 400.39 295.376 399.43 297.232C399.11 298.512 398.726 299.664 398.278 300.688C397.894 301.712 397.734 302.384 397.798 302.704C397.67 302.832 397.382 303.472 396.934 304.624C396.55 305.776 396.07 307.184 395.494 308.848C394.982 310.512 394.438 312.176 393.862 313.84C393.35 315.504 392.87 316.976 392.422 318.256C392.038 319.472 391.782 320.24 391.654 320.56C391.142 321.584 390.566 323.088 389.926 325.072C389.286 327.056 388.326 329.744 387.046 333.136C386.534 334.16 385.894 335.696 385.126 337.744C384.422 339.792 383.846 341.648 383.398 343.312C382.694 345.808 382.054 347.6 381.478 348.688C380.966 349.776 380.486 350.416 380.038 350.608C379.59 350.864 379.11 351.024 378.598 351.088ZM379.462 294.64C376.838 294.896 375.046 294.576 374.086 293.68C373.19 292.784 372.87 291.824 373.126 290.8C373.318 290.032 373.766 289.392 374.47 288.88C375.238 288.304 376.614 287.824 378.598 287.44C379.302 287.312 380.198 287.152 381.286 286.96C382.438 286.768 383.526 286.576 384.55 286.384C386.662 286.128 388.39 285.904 389.734 285.712C391.142 285.52 392.582 285.36 394.054 285.232C395.526 285.104 397.382 284.976 399.622 284.848C401.478 284.72 403.046 284.624 404.326 284.56C405.67 284.432 406.342 284.368 406.342 284.368C406.534 284.368 407.206 284.432 408.358 284.56C409.51 284.688 410.758 284.848 412.102 285.04C413.446 285.232 414.438 285.456 415.078 285.712C416.55 286.032 417.734 286.608 418.63 287.44C419.526 288.272 420.102 289.232 420.358 290.32C420.55 291.088 420.55 291.696 420.358 292.144C420.166 292.528 419.814 292.848 419.302 293.104C417.83 293.552 416.614 293.936 415.654 294.256C414.758 294.512 413.862 294.48 412.966 294.16C412.646 293.84 412.262 293.552 411.814 293.296C411.43 293.04 410.726 292.848 409.702 292.72C408.742 292.528 407.206 292.368 405.094 292.24C403.302 292.432 401.734 292.528 400.39 292.528C399.046 292.528 398.374 292.688 398.374 293.008L392.71 293.296L388.006 293.776C387.366 293.84 386.47 293.936 385.318 294.064C384.166 294.128 383.046 294.224 381.958 294.352C380.87 294.416 380.038 294.512 379.462 294.64ZM413.639 342.832C413.383 342.832 412.839 342.64 412.007 342.256C411.175 341.872 410.759 341.68 410.759 341.68C410.759 341.424 410.663 341.104 410.471 340.72C410.343 340.336 410.279 340.016 410.279 339.76C409.831 339.504 409.383 339.088 408.935 338.512C408.487 337.936 408.391 337.296 408.647 336.592C409.031 335.888 409.543 334.832 410.183 333.424C410.887 331.952 411.623 330.32 412.391 328.528C413.223 326.672 413.991 324.88 414.695 323.152C415.399 321.424 416.007 319.952 416.519 318.736C417.031 317.456 417.319 316.688 417.383 316.432C417.383 316.176 417.415 315.728 417.479 315.088C417.607 314.448 418.023 313.904 418.727 313.456C419.559 312.88 420.423 312.848 421.319 313.36C422.215 313.872 422.983 314.768 423.623 316.048C424.263 317.264 424.583 318.704 424.583 320.368C424.583 320.816 424.263 321.968 423.623 323.824C422.983 325.616 422.119 327.76 421.031 330.256C420.007 332.752 418.855 335.28 417.575 337.84C416.615 339.696 415.879 341.008 415.367 341.776C414.919 342.48 414.343 342.832 413.639 342.832ZM426.695 306.064C425.927 306.064 424.999 305.712 423.911 305.008C422.887 304.304 421.959 303.408 421.127 302.32C420.295 301.232 419.879 300.08 419.879 298.864C419.879 298.544 420.167 297.968 420.743 297.136C421.319 296.24 421.863 295.376 422.375 294.544C422.951 293.712 423.239 293.232 423.239 293.104C423.751 293.104 424.359 293.2 425.062 293.392C425.767 293.584 426.343 293.808 426.791 294.064C427.495 295.664 428.423 297.04 429.575 298.192C430.727 299.28 431.303 300.528 431.303 301.936C431.303 303.344 430.951 304.4 430.247 305.104C429.543 305.744 428.359 306.064 426.695 306.064ZM425.762 368.368C425.506 368.368 425.122 368.368 424.61 368.368C424.162 368.432 423.778 368.176 423.458 367.6C423.202 367.28 422.818 366.64 422.306 365.68C421.794 364.784 421.698 363.504 422.018 361.84C422.338 360.752 422.594 359.664 422.786 358.576C422.978 357.552 423.074 356.784 423.074 356.272C423.074 356.016 423.138 355.504 423.266 354.736C423.458 354.032 423.554 353.52 423.554 353.2C423.874 352.688 424.13 351.984 424.322 351.088C424.514 350.192 424.61 349.392 424.61 348.688C424.61 347.92 424.994 347.216 425.762 346.576C425.762 346.064 425.858 345.424 426.05 344.656C426.306 343.888 426.434 343.376 426.434 343.12C426.626 342.224 427.042 340.656 427.682 338.416C428.386 336.112 429.218 333.52 430.178 330.64C431.202 327.76 432.194 324.944 433.154 322.192C434.114 319.44 434.978 317.104 435.746 315.184C436.514 313.392 437.154 311.728 437.666 310.192C438.178 308.656 438.434 307.568 438.434 306.928C438.434 306.672 438.498 306.48 438.626 306.352C438.754 306.16 439.042 305.808 439.49 305.296C440.13 304.656 440.962 304.432 441.986 304.624C443.074 304.752 443.97 305.072 444.674 305.584C445.186 306.416 445.538 307.184 445.73 307.888C445.986 308.528 445.986 309.552 445.73 310.96C445.73 311.92 445.506 312.816 445.058 313.648C444.61 314.416 444.194 315.056 443.81 315.568C443.49 316.016 443.394 316.208 443.522 316.144C446.338 314.416 448.866 313.488 451.106 313.36C453.41 313.168 455.33 313.552 456.866 314.512C458.466 315.408 459.682 316.656 460.514 318.256C461.346 319.856 461.762 321.584 461.762 323.44C461.762 324.208 461.506 325.232 460.994 326.512C460.482 327.792 459.906 329.008 459.266 330.16C458.626 331.248 458.114 331.984 457.73 332.368C457.474 332.368 457.218 332.592 456.962 333.04C456.706 333.424 456.45 333.872 456.194 334.384C455.682 335.024 454.818 335.76 453.602 336.592C452.45 337.36 451.266 338 450.05 338.512C448.834 338.96 447.97 339.088 447.458 338.896C447.458 338.896 447.362 338.96 447.17 339.088C447.042 339.216 446.978 339.44 446.978 339.76C446.978 339.888 446.53 340.144 445.634 340.528C444.738 340.912 443.682 341.264 442.466 341.584C441.25 341.904 440.13 342.064 439.106 342.064C437.762 342.064 436.802 341.808 436.226 341.296C436.098 341.424 435.938 341.616 435.746 341.872C435.618 342.128 435.554 342.352 435.554 342.544C435.554 342.928 435.394 343.536 435.074 344.368C434.818 345.2 434.498 345.936 434.114 346.576C433.73 347.28 433.378 347.632 433.058 347.632C433.058 347.632 432.994 347.728 432.866 347.92C432.738 348.112 432.802 348.368 433.058 348.688C433.058 348.688 433.026 349.04 432.962 349.744C432.962 350.512 432.802 351.152 432.482 351.664C432.482 352.176 432.386 352.944 432.194 353.968C432.002 354.992 431.778 355.76 431.522 356.272C431.522 357.04 431.394 357.776 431.138 358.48C430.946 359.248 430.722 359.632 430.466 359.632C430.21 359.696 430.05 360.08 429.986 360.784C429.922 361.552 429.89 362.096 429.89 362.416C429.826 364.016 429.314 365.392 428.354 366.544C427.394 367.76 426.53 368.368 425.762 368.368ZM438.05 334.768C438.562 334.768 439.49 334.544 440.834 334.096C442.178 333.648 443.586 333.104 445.058 332.464C446.53 331.76 447.682 331.056 448.514 330.352C450.178 328.88 451.458 327.44 452.354 326.032C453.314 324.624 453.25 323.056 452.162 321.328C451.65 320.432 450.818 320.08 449.666 320.272C448.578 320.4 447.362 320.912 446.018 321.808C444.674 322.704 443.298 323.824 441.89 325.168C441.122 326 440.418 326.96 439.778 328.048C439.138 329.136 438.594 330.192 438.146 331.216C437.762 332.24 437.538 333.104 437.474 333.808C437.41 334.448 437.602 334.768 438.05 334.768ZM495.566 345.328C494.734 345.328 494.062 345.168 493.549 344.848C493.102 344.528 492.526 344.08 491.822 343.504C490.606 342.224 489.614 340.848 488.846 339.376C488.142 337.904 487.886 336.624 488.078 335.536C488.27 335.024 488.334 334.544 488.27 334.096C488.27 333.584 488.27 333.328 488.27 333.328C487.95 333.008 487.854 332.816 487.982 332.752C488.11 332.624 488.238 332.432 488.366 332.176C488.75 332.176 488.878 331.824 488.75 331.12C488.622 330.608 488.814 329.52 489.326 327.856C489.902 326.128 490.67 324.496 491.63 322.96C492.014 322.32 492.59 321.488 493.358 320.464C494.126 319.376 494.958 318.32 495.854 317.296C496.814 316.208 497.678 315.344 498.446 314.704C500.046 313.36 501.518 312.272 502.862 311.44C504.27 310.608 505.678 310.032 507.086 309.712C508.494 309.392 509.934 309.232 511.406 309.232C512.942 309.232 514.19 309.744 515.15 310.768C516.622 311.408 517.646 312.272 518.222 313.36C518.862 314.448 519.278 315.856 519.47 317.584C519.662 319.504 519.47 321.872 518.894 324.688C518.318 327.44 516.75 330.64 514.19 334.288C512.59 336.592 511.022 338.384 509.486 339.664C507.95 340.944 506.254 342.128 504.398 343.216C503.054 344.112 501.614 344.656 500.078 344.848C498.542 345.04 497.038 345.2 495.566 345.328ZM505.358 333.616C506.766 332.4 507.758 331.056 508.334 329.584C508.974 328.112 509.646 326.384 510.35 324.4C510.606 324.016 510.766 323.376 510.83 322.48C510.958 321.584 510.99 320.72 510.926 319.888C510.862 318.992 510.638 318.48 510.254 318.352C509.678 317.904 509.102 317.808 508.526 318.064C507.95 318.256 507.214 318.672 506.318 319.312C504.398 320.912 502.606 322.768 500.942 324.88C499.342 326.928 498.222 329.456 497.582 332.464C497.39 334.064 497.55 335.28 498.062 336.112C498.638 336.88 499.534 337.104 500.75 336.784C502.03 336.4 503.566 335.344 505.358 333.616ZM528.523 354.352C527.691 354.416 526.859 353.904 526.027 352.816C525.195 351.728 524.491 350.288 523.915 348.496C523.403 346.704 523.147 344.752 523.147 342.64C522.891 340.016 523.115 336.816 523.819 333.04C524.523 329.264 525.579 324.848 526.987 319.792C527.499 318.064 528.235 315.952 529.195 313.456C530.155 310.96 531.147 308.496 532.171 306.064C533.259 303.632 534.219 301.584 535.051 299.92C535.883 298.192 536.395 297.232 536.587 297.04C536.971 297.168 537.163 296.88 537.163 296.176C537.163 296.048 537.419 295.568 537.931 294.736C538.443 293.904 538.923 293.008 539.371 292.048C540.203 290.832 541.259 289.552 542.539 288.208C543.883 286.8 545.227 285.52 546.571 284.368C547.979 283.216 549.195 282.448 550.219 282.064C551.179 281.68 552.139 281.488 553.099 281.488C554.315 281.488 555.627 281.904 557.035 282.736C558.507 283.504 559.755 284.496 560.779 285.712C561.867 286.864 562.411 288.048 562.411 289.264C562.411 290.288 562.187 291.28 561.739 292.24C561.547 293.2 561.163 294.288 560.587 295.504C560.011 296.656 559.435 297.744 558.859 298.768C558.347 299.728 557.931 300.432 557.611 300.88C555.755 302.288 554.315 302.832 553.291 302.512C552.267 302.192 551.915 301.808 552.235 301.36C552.235 301.104 552.331 300.56 552.523 299.728C552.715 298.832 552.843 298.16 552.907 297.712C552.907 297.584 553.035 297.2 553.291 296.56C553.611 295.92 553.771 295.28 553.771 294.64C554.347 292.336 554.603 290.832 554.539 290.128C554.539 289.424 554.251 289.072 553.675 289.072C553.355 289.008 552.971 289.072 552.523 289.264C552.075 289.456 551.691 289.712 551.371 290.032C551.115 290.288 550.987 290.576 550.987 290.896C550.987 291.088 550.987 291.216 550.987 291.28C550.795 291.216 550.219 291.76 549.259 292.912C548.363 294 547.339 295.344 546.187 296.944C545.035 298.48 544.075 299.888 543.307 301.168C542.795 302.256 542.219 303.504 541.579 304.912C541.003 306.256 540.171 308.336 539.083 311.152L538.315 313.456L539.851 313.648C540.363 313.712 541.003 313.68 541.771 313.552C542.603 313.36 543.531 313.168 544.555 312.976C546.731 312.656 548.203 312.88 548.971 313.648C549.803 314.352 550.443 315.216 550.891 316.24C551.595 317.776 551.211 318.832 549.739 319.408C548.267 319.92 545.099 320.304 540.235 320.56C539.211 320.432 538.315 320.4 537.547 320.464C536.843 320.464 536.363 320.592 536.107 320.848C535.851 320.976 535.499 321.68 535.051 322.96C534.603 324.176 534.123 325.648 533.611 327.376C533.163 329.04 532.811 330.64 532.555 332.176C532.043 334.16 531.723 336.304 531.595 338.608C531.467 340.848 531.467 342.96 531.595 344.944C531.723 346.864 531.915 348.336 532.171 349.36C532.555 350.896 532.235 352.016 531.211 352.72C530.187 353.488 529.291 354.032 528.523 354.352ZM584.778 351.76C581.642 351.696 579.626 350.8 578.73 349.072C577.898 347.408 577.674 345.296 578.058 342.736C578.442 341.52 578.666 340.432 578.73 339.472C578.858 338.448 579.146 337.808 579.594 337.552C579.594 337.552 579.626 337.456 579.69 337.264C579.818 337.072 579.786 336.88 579.594 336.688C579.594 335.856 579.882 334.704 580.458 333.232C580.586 332.848 580.746 332.4 580.938 331.888C581.194 331.312 581.322 331.024 581.322 331.024C581.002 330.512 581.002 330.096 581.322 329.776C581.642 329.456 581.962 329.168 582.282 328.912C582.666 328.592 582.698 328.24 582.378 327.856C582.25 327.6 582.41 327.024 582.858 326.128C583.306 325.168 583.818 324.176 584.394 323.152C584.97 322.128 585.354 321.328 585.546 320.752C585.546 320.624 585.706 320.176 586.026 319.408C586.346 318.64 586.73 317.744 587.178 316.72C587.626 315.696 588.042 314.768 588.426 313.936C588.874 313.104 589.162 312.56 589.29 312.304C589.93 311.984 589.674 311.76 588.522 311.632C587.37 311.504 586.154 311.472 584.874 311.536C582.89 311.472 581.29 311.376 580.074 311.248C578.922 311.12 577.962 310.832 577.194 310.384C576.426 309.488 576.33 308.432 576.906 307.216C577.482 305.936 578.41 305.264 579.69 305.2C580.522 305.136 581.162 305.104 581.61 305.104C582.122 305.104 582.762 305.072 583.53 305.008C584.362 304.88 585.642 304.72 587.37 304.528L592.266 304.144L592.554 302.512C593.066 301.68 593.418 301.136 593.61 300.88C593.802 300.624 593.93 300.368 593.994 300.112C594.058 299.792 594.154 299.248 594.282 298.48C594.282 298.48 594.57 297.968 595.146 296.944C595.722 295.856 596.074 294.736 596.202 293.584C596.97 292.304 597.642 291.152 598.218 290.128C598.794 289.04 599.146 288.368 599.274 288.112C600.362 286.512 601.418 285.648 602.442 285.52C603.53 285.392 604.554 285.648 605.514 286.288C606.09 286.608 606.634 287.024 607.146 287.536C607.658 287.984 607.978 288.592 608.106 289.36C608.234 290.064 607.946 290.992 607.242 292.144C607.114 292.4 606.922 292.88 606.666 293.584C606.41 294.224 606.218 294.768 606.09 295.216C605.706 295.664 605.226 296.4 604.65 297.424C604.138 298.384 603.786 299.376 603.594 300.4C603.082 301.488 602.762 302.16 602.634 302.416C602.506 302.672 602.314 302.8 602.058 302.8C602.186 303.44 602.57 303.76 603.21 303.76C603.85 303.696 604.906 303.632 606.378 303.568C607.594 303.44 608.426 303.312 608.874 303.184C609.386 302.992 609.962 303.056 610.602 303.376C610.922 303.824 611.082 304.496 611.082 305.392C611.146 306.224 611.05 307.056 610.794 307.888C610.538 308.656 610.186 309.136 609.738 309.328C609.418 309.328 608.746 309.52 607.722 309.904C606.762 310.224 605.546 310.416 604.074 310.48L598.986 310.96L597.354 314.224C596.906 315.056 596.522 315.824 596.202 316.528C595.882 317.168 595.658 317.552 595.53 317.68C595.53 318.064 595.306 318.64 594.858 319.408C594.474 320.176 594.058 321.008 593.61 321.904C593.226 322.992 592.778 323.984 592.266 324.88C591.818 325.776 591.594 326.224 591.594 326.224C591.338 326.224 591.21 326.416 591.21 326.8C591.53 327.568 591.434 328.144 590.922 328.528C590.602 328.72 590.314 329.008 590.058 329.392C589.866 329.712 589.77 329.872 589.77 329.872C590.026 330.128 590.058 330.448 589.866 330.832C589.738 331.216 589.546 331.632 589.29 332.08C589.29 332.592 589.13 333.328 588.81 334.288C588.554 335.248 588.266 336.144 587.946 336.976C588.01 338.128 588.074 338.864 588.138 339.184C588.202 339.504 588.362 339.632 588.618 339.568C588.938 339.632 589.386 339.632 589.962 339.568C590.538 339.504 590.954 339.472 591.21 339.472C592.17 339.024 591.722 341.264 589.866 346.192C588.842 347.792 587.818 349.104 586.794 350.128C585.77 351.216 585.098 351.76 584.778 351.76ZM611.375 342.352C610.927 342.416 610.415 342.256 609.839 341.872C609.327 341.424 608.847 341.04 608.399 340.72C607.759 339.952 607.311 339.28 607.055 338.704C606.799 338.128 606.671 337.488 606.671 336.784C606.671 336.08 606.735 335.248 606.863 334.288C607.183 333.264 607.567 331.888 608.015 330.16C608.463 328.432 609.007 326.576 609.647 324.592C609.775 323.824 609.999 322.928 610.319 321.904C610.703 320.816 611.087 319.792 611.471 318.832C611.855 317.808 612.143 317.04 612.335 316.528C612.783 314.928 613.231 313.392 613.679 311.92C614.191 310.448 614.799 308.752 615.503 306.832C616.207 304.912 617.071 302.48 618.095 299.536C619.503 295.696 620.559 292.816 621.263 290.896C621.967 288.976 622.479 287.6 622.799 286.768C623.119 285.936 623.343 285.264 623.471 284.752C623.471 284.24 623.823 283.76 624.527 283.312C625.295 282.8 625.967 282.544 626.543 282.544C627.439 282.608 628.303 283.152 629.135 284.176C629.967 285.136 630.543 286.32 630.863 287.728C631.183 289.072 630.959 290.384 630.191 291.664C629.167 293.968 628.143 296.56 627.119 299.44C626.159 302.256 625.199 305.072 624.239 307.888C623.279 310.704 622.319 313.296 621.359 315.664C621.295 315.984 621.071 316.528 620.687 317.296C620.367 318.064 620.079 318.704 619.823 319.216C619.567 319.728 619.311 320.208 619.055 320.656C618.863 321.104 618.767 321.328 618.767 321.328C618.703 321.712 618.575 322.256 618.383 322.96C618.191 323.664 617.999 324.272 617.807 324.784C617.743 325.104 617.647 325.52 617.519 326.032C617.391 326.544 617.295 327.056 617.231 327.568C617.551 327.184 617.999 326.736 618.575 326.224C619.151 325.648 619.887 324.944 620.783 324.112C621.807 323.216 622.703 322.448 623.471 321.808C624.239 321.168 625.007 320.592 625.775 320.08C626.479 319.568 627.119 319.088 627.695 318.64C628.335 318.192 628.655 317.968 628.655 317.968C628.783 317.776 628.911 317.552 629.039 317.296C629.231 317.04 629.423 316.88 629.615 316.816C629.743 316.688 629.967 316.528 630.287 316.336C630.607 316.08 630.927 315.824 631.247 315.568C631.823 315.184 632.431 314.864 633.071 314.608C633.711 314.352 634.383 314.16 635.087 314.032C635.791 313.904 636.463 313.84 637.103 313.84C637.871 313.84 638.671 314.16 639.503 314.8C640.335 315.376 641.103 316.208 641.807 317.296C642.447 318.128 642.831 319.12 642.959 320.272C643.151 321.36 643.183 322.832 643.055 324.688C643.055 325.2 642.895 326.16 642.575 327.568C642.319 328.976 642.127 330.032 641.999 330.736L641.135 334H641.903C642.607 333.744 643.279 333.712 643.919 333.904C644.623 334.096 644.975 334.192 644.975 334.192C645.295 334.384 645.583 334.608 645.839 334.864C646.159 335.12 646.447 335.312 646.703 335.44C647.087 335.952 647.023 336.688 646.511 337.648C645.999 338.608 645.423 339.28 644.783 339.664C643.247 340.688 641.871 341.328 640.655 341.584C639.503 341.84 638.287 341.616 637.007 340.912C635.791 340.08 634.959 339.088 634.511 337.936C634.127 336.784 633.967 335.216 634.031 333.232C634.287 330.416 634.447 328.4 634.511 327.184C634.575 325.904 634.255 325.264 633.551 325.264C632.783 325.264 631.727 325.648 630.383 326.416C629.103 327.12 627.663 328.112 626.063 329.392C624.463 330.608 622.863 331.984 621.263 333.52C619.727 334.992 618.351 336.496 617.135 338.032C616.367 338.992 615.535 339.952 614.639 340.912C613.743 341.808 612.655 342.288 611.375 342.352ZM662.702 347.728C659.182 347.728 656.462 346.704 654.542 344.656C652.686 342.608 651.758 339.472 651.758 335.248C651.758 332.944 652.174 330.416 653.006 327.664C653.902 324.912 655.054 322.224 656.462 319.6C657.934 316.976 659.534 314.704 661.262 312.784C662.99 310.8 664.718 309.424 666.446 308.656C667.086 308.336 667.758 308.112 668.462 307.984C669.23 307.792 669.966 307.696 670.67 307.696C671.438 307.696 672.27 307.76 673.166 307.888C674.126 307.952 675.022 308.144 675.854 308.464C677.326 308.912 678.606 309.776 679.694 311.056C680.846 312.336 681.422 314.192 681.422 316.624C681.422 317.264 681.358 317.968 681.23 318.736C681.102 319.44 680.878 320.144 680.558 320.848C679.726 322.96 678.446 324.976 676.718 326.896C675.054 328.816 673.294 330.16 671.438 330.928C670.926 331.184 670.414 331.376 669.902 331.504C669.454 331.568 668.974 331.6 668.462 331.6C667.118 331.6 665.902 331.408 664.814 331.024C663.79 330.64 662.83 330.128 661.934 329.488L661.166 328.816L660.686 329.776C660.238 330.992 659.918 332.016 659.726 332.848C659.598 333.68 659.534 334.288 659.534 334.672C659.534 335.44 659.566 336.24 659.63 337.072C659.694 337.84 659.886 338.48 660.206 338.992C660.462 339.312 660.782 339.568 661.166 339.76C661.614 339.952 662.158 340.048 662.798 340.048C663.182 340.048 663.534 340.048 663.854 340.048C664.238 339.984 664.558 339.92 664.814 339.856C665.966 339.6 666.894 339.184 667.598 338.608C668.366 337.968 669.166 337.424 669.998 336.976L670.382 336.784L670.286 336.496C671.374 335.92 672.11 335.568 672.494 335.44C672.878 335.248 673.166 335.088 673.358 334.96C673.614 334.704 673.902 334.576 674.222 334.576C675.118 334.448 675.982 334.704 676.814 335.344C677.71 335.92 678.158 336.656 678.158 337.552C678.158 337.936 677.87 338.544 677.294 339.376C676.782 340.208 676.11 341.04 675.278 341.872C674.51 342.64 673.71 343.248 672.878 343.696C672.686 343.76 672.494 343.856 672.302 343.984C672.11 344.048 671.918 344.144 671.726 344.272H671.822C671.246 345.04 670.67 345.424 670.094 345.424H669.326C669.07 345.872 668.238 346.352 666.83 346.864C665.422 347.44 664.046 347.728 662.702 347.728ZM667.694 324.592C668.27 324.592 668.782 324.496 669.23 324.304C669.742 324.112 670.222 323.888 670.67 323.632C672.206 322.544 673.198 321.136 673.646 319.408C674.094 317.68 673.934 316.368 673.166 315.472C673.038 315.28 672.878 315.152 672.686 315.088C672.494 314.96 672.27 314.896 672.014 314.896C671.31 314.896 670.51 315.12 669.614 315.568C668.782 316.016 667.95 316.656 667.118 317.488C666.286 318.32 665.518 319.312 664.814 320.464L663.566 322.48C663.694 322.416 663.79 322.384 663.854 322.384C663.982 322.32 664.078 322.288 664.142 322.288C664.718 322.288 665.102 322.48 665.294 322.864C665.486 323.248 665.71 323.632 665.966 324.016C666.286 324.4 666.862 324.592 667.694 324.592ZM719.071 356.176C717.855 356.368 716.383 356.336 714.655 356.08C712.927 355.888 711.071 355.536 709.087 355.024C708.063 354.704 707.327 354.32 706.879 353.872C706.495 353.424 705.823 352.592 704.863 351.376C704.223 350.416 703.807 349.328 703.615 348.112C703.487 346.896 703.647 345.808 704.095 344.848C704.607 343.888 705.439 343.312 706.591 343.12C707.103 342.992 707.711 343.12 708.415 343.504C709.183 343.824 709.983 344.24 710.815 344.752C712.159 345.52 713.599 346.288 715.135 347.056C716.671 347.888 718.079 348.208 719.359 348.016C720.255 347.824 721.311 347.696 722.527 347.632C723.807 347.632 725.023 347.536 726.175 347.344C727.391 347.152 728.351 346.8 729.055 346.288C732.447 343.984 734.975 342.16 736.639 340.816C738.303 339.408 739.135 338.704 739.135 338.704C739.263 338.448 739.487 338.256 739.807 338.128C740.191 337.936 740.639 337.744 741.151 337.552C741.535 337.168 742.143 336.56 742.975 335.728C743.807 334.832 744.607 333.968 745.375 333.136C746.207 332.304 746.719 331.824 746.911 331.696C747.039 331.12 747.167 330.672 747.295 330.352C747.423 329.968 747.487 329.584 747.487 329.2C747.999 328.688 748.671 327.632 749.503 326.032C750.399 324.368 751.295 322.544 752.191 320.56C753.087 318.512 753.727 316.656 754.111 314.992C754.943 311.472 755.231 308.272 754.975 305.392C754.719 302.512 753.983 299.92 752.767 297.616C751.551 295.312 749.919 293.296 747.871 291.568C747.167 290.992 746.207 290.384 744.991 289.744C743.775 289.04 742.527 288.4 741.247 287.824C739.967 287.184 738.815 286.704 737.791 286.384C736.831 286.064 736.255 285.936 736.063 286C735.807 286.064 735.295 287.056 734.527 288.976C733.823 290.832 732.927 293.232 731.839 296.176C730.815 299.12 729.695 302.288 728.479 305.68C727.327 309.008 726.207 312.176 725.119 315.184C724.799 316.4 724.383 317.68 723.871 319.024C723.423 320.368 723.039 321.552 722.719 322.576C722.399 323.536 722.239 324.176 722.239 324.496C721.535 325.584 720.799 327.248 720.031 329.488C719.263 331.728 718.623 334.928 718.111 339.088C717.535 341.264 717.119 343.088 716.863 344.56C716.607 345.968 716.351 346.64 716.095 346.576C716.095 346.576 716.063 346.864 715.999 347.44C715.935 348.08 715.807 348.496 715.615 348.688C715.615 349.072 715.231 349.328 714.463 349.456C713.695 349.584 712.799 349.424 711.775 348.976C710.751 348.528 709.791 347.664 708.895 346.384C708.703 345.68 708.543 344.656 708.415 343.312C708.351 341.904 708.575 340.272 709.087 338.416C709.407 337.2 709.855 335.632 710.431 333.712C711.007 331.792 711.647 329.808 712.351 327.76C713.055 325.712 713.695 323.824 714.271 322.096C714.911 320.368 715.359 319.088 715.615 318.256C716.063 317.168 716.703 315.12 717.535 312.112C718.047 310.448 718.559 308.784 719.071 307.12C719.647 305.456 720.191 303.984 720.703 302.704C721.215 301.36 721.567 300.496 721.759 300.112C722.079 299.28 722.463 297.936 722.911 296.08C723.423 294.16 724.191 291.984 725.215 289.552L725.887 286.384L724.831 285.904C724.063 286.16 723.455 286.256 723.007 286.192C722.623 286.064 722.367 285.968 722.239 285.904C721.855 286.032 721.343 285.936 720.703 285.616C720.127 285.232 719.583 284.752 719.071 284.176C718.623 283.6 718.335 283.12 718.207 282.736C718.079 282.48 717.983 282.16 717.919 281.776C717.919 281.328 717.919 281.104 717.919 281.104C717.983 280.72 718.527 280.336 719.551 279.952C720.575 279.504 721.887 279.088 723.487 278.704C725.151 278.32 726.911 278.032 728.767 277.84C730.623 277.648 732.351 277.616 733.951 277.744C735.615 277.872 737.663 278.256 740.095 278.896C742.527 279.536 744.607 280.176 746.335 280.816C748.383 281.584 750.591 282.896 752.959 284.752C755.327 286.608 757.471 288.816 759.391 291.376C761.375 293.936 762.687 296.624 763.327 299.44C763.519 300.208 763.711 301.296 763.903 302.704C764.095 304.112 764.191 305.488 764.191 306.832C764.255 308.112 764.127 308.944 763.807 309.328C763.679 309.584 763.583 309.904 763.519 310.288C763.519 310.608 763.647 310.832 763.903 310.96C763.839 311.152 763.615 311.888 763.231 313.168C762.847 314.384 762.495 315.44 762.175 316.336C762.047 318 761.599 319.92 760.831 322.096C760.127 324.272 759.327 326.352 758.431 328.336C757.599 330.256 756.863 331.76 756.223 332.848C755.967 332.848 755.711 332.912 755.455 333.04C755.263 333.104 755.295 333.168 755.551 333.232C755.551 333.552 755.199 334.16 754.495 335.056C754.239 335.248 753.823 335.728 753.247 336.496C752.735 337.2 752.319 337.68 751.999 337.936C751.935 338.384 751.743 338.768 751.423 339.088C751.103 339.344 750.815 339.472 750.559 339.472C750.559 339.472 750.495 339.472 750.367 339.472C750.303 339.472 750.271 339.6 750.271 339.856C749.759 340.624 748.895 341.616 747.679 342.832C746.463 344.048 745.087 345.296 743.551 346.576C742.015 347.856 740.479 349.04 738.943 350.128C737.407 351.216 735.999 352.016 734.719 352.528C734.079 352.976 733.407 353.328 732.703 353.584C731.999 353.904 731.327 354.224 730.687 354.544C730.367 354.8 729.439 355.024 727.903 355.216C726.367 355.408 724.735 355.568 723.007 355.696C721.343 355.824 720.031 355.984 719.071 356.176ZM770.327 344.272C769.559 344.464 768.694 344.24 767.734 343.6C766.775 342.96 765.911 342.16 765.143 341.2C764.375 340.24 763.895 339.376 763.703 338.608C763.447 337.264 763.511 335.632 763.895 333.712C764.343 331.728 765.079 329.648 766.103 327.472C767.127 325.232 768.407 323.056 769.943 320.944C771.479 318.768 773.207 316.816 775.127 315.088C777.047 313.36 779.127 312.016 781.367 311.056C782.327 310.544 782.999 310.224 783.383 310.096C783.767 309.904 784.151 309.904 784.535 310.096C784.919 310.224 785.591 310.544 786.551 311.056C787.447 311.312 788.343 311.632 789.239 312.016C790.199 312.336 791.031 312.976 791.735 313.936C792.247 314.896 792.631 315.856 792.887 316.816C793.143 317.776 793.367 318.864 793.559 320.08C794.071 321.68 794.263 322.736 794.135 323.248C794.007 323.696 793.815 324.048 793.559 324.304C793.047 324.944 792.919 325.264 793.175 325.264C793.175 325.264 793.143 325.392 793.079 325.648C793.079 325.84 792.951 326.16 792.695 326.608C792.247 328.016 791.895 329.36 791.639 330.64C791.447 331.856 791.479 332.944 791.735 333.904C792.247 335.312 792.919 336.144 793.751 336.4C794.647 336.656 795.799 336.08 797.207 334.672C797.911 334.16 798.711 333.84 799.607 333.712C800.503 333.52 800.951 333.68 800.951 334.192C800.951 334.192 801.047 334.288 801.239 334.48C801.431 334.608 801.655 334.672 801.911 334.672C802.231 334.672 802.359 334.992 802.295 335.632C802.231 336.208 802.103 336.88 801.911 337.648C801.719 338.416 801.463 339.056 801.143 339.568C800.183 340.528 799.703 341.168 799.703 341.488C799.703 341.488 799.575 341.616 799.319 341.872C799.127 342.064 798.775 342.384 798.263 342.832C797.111 343.536 795.639 343.888 793.847 343.888C792.119 343.888 790.775 343.536 789.815 342.832C788.855 342.128 787.895 341.264 786.935 340.24C786.039 339.216 785.463 338.256 785.207 337.36L784.727 336.4L781.943 338.224C781.239 338.928 780.727 339.472 780.406 339.856C780.087 340.176 779.799 340.464 779.543 340.72C779.351 340.976 779.127 341.2 778.871 341.392C778.679 341.584 778.455 341.68 778.199 341.68C777.943 341.68 777.719 341.68 777.527 341.68C777.335 341.68 777.239 341.68 777.239 341.68C777.239 341.936 776.791 342.288 775.895 342.736C774.999 343.12 774.007 343.472 772.919 343.792C771.831 344.112 770.967 344.272 770.327 344.272ZM772.343 336.208C772.727 336.208 773.303 335.984 774.071 335.536C774.903 335.024 775.799 334.416 776.759 333.712C777.719 333.008 778.583 332.304 779.351 331.6C780.183 330.896 780.791 330.32 781.175 329.872C781.431 329.616 781.719 329.2 782.039 328.624C782.423 328.048 782.839 327.536 783.286 327.088C784.759 325.424 785.687 324.112 786.071 323.152C786.455 322.128 786.295 321.04 785.591 319.888C785.335 319.184 785.015 318.8 784.631 318.736C784.247 318.672 783.447 318.896 782.231 319.408C781.463 319.856 780.631 320.592 779.734 321.616C778.839 322.64 777.911 323.792 776.951 325.072C776.055 326.352 775.223 327.664 774.455 329.008C773.687 330.352 773.047 331.568 772.535 332.656C772.087 333.744 771.863 334.608 771.863 335.248C771.863 335.504 771.927 335.728 772.055 335.92C772.247 336.112 772.343 336.208 772.343 336.208ZM801.809 370.672C800.401 370.928 799.441 370.96 798.929 370.768C798.417 370.576 797.713 370.256 796.817 369.808C796.113 369.296 795.601 368.912 795.281 368.656C794.961 368.4 794.737 368.144 794.609 367.888C793.969 366.544 793.873 365.552 794.321 364.912C794.769 364.272 795.409 363.856 796.241 363.664C797.137 363.536 797.905 363.472 798.545 363.472C798.993 363.728 799.729 363.856 800.753 363.856C801.841 363.856 802.513 363.728 802.769 363.472C802.769 363.472 803.057 363.28 803.633 362.896C804.273 362.576 805.105 362.32 806.129 362.128C808.113 361.168 809.681 360.176 810.833 359.152C811.985 358.192 813.265 356.528 814.673 354.16C815.249 353.264 815.857 352.208 816.497 350.992C817.137 349.84 817.585 348.688 817.841 347.536C818.353 346.256 818.929 344.528 819.569 342.352C820.273 340.176 820.881 338.032 821.393 335.92C821.905 333.744 822.193 332.112 822.257 331.024C822.641 327.44 823.377 323.984 824.465 320.656C825.553 317.264 826.417 313.68 827.057 309.904C827.441 309.008 827.729 308.496 827.921 308.368C828.113 308.176 828.529 308.08 829.169 308.08C829.873 308.08 830.705 308.304 831.665 308.752C832.625 309.136 833.329 309.68 833.777 310.384C834.417 311.6 834.705 313.04 834.641 314.704C834.641 316.304 834.225 317.712 833.393 318.928C832.753 319.824 832.177 321.232 831.665 323.152C831.217 325.008 830.769 327.344 830.321 330.16C830.001 331.568 829.649 333.232 829.265 335.152C828.945 337.008 828.593 339.088 828.209 341.392C827.953 342.032 827.601 343.024 827.153 344.368C826.705 345.648 826.417 346.672 826.289 347.44C826.225 347.696 826.033 348.208 825.713 348.976C825.393 349.744 825.073 350.48 824.753 351.184C824.433 351.952 824.209 352.464 824.081 352.72C821.009 358.928 817.457 363.408 813.425 366.16C809.457 368.912 805.585 370.416 801.809 370.672ZM809.873 343.504C809.169 343.504 808.433 343.12 807.665 342.352C806.961 341.584 806.481 340.976 806.225 340.528C805.969 339.888 805.489 339.28 804.785 338.704C804.081 338.128 803.473 337.424 802.961 336.592C802.449 335.76 802.321 334.736 802.577 333.52C802.833 332.688 803.217 331.44 803.729 329.776C804.241 328.048 804.849 326.16 805.553 324.112C806.257 322 806.961 319.92 807.665 317.872C808.433 315.824 809.137 314 809.777 312.4C810.417 310.8 810.961 309.68 811.409 309.04C811.793 308.528 812.401 308.144 813.233 307.888C814.065 307.632 814.897 307.568 815.729 307.696C816.561 307.824 817.169 308.208 817.553 308.848C818.257 309.744 818.641 310.64 818.705 311.536C818.833 312.368 818.385 313.712 817.361 315.568C817.105 316.272 816.785 317.04 816.401 317.872C816.017 318.64 815.825 319.152 815.825 319.408C815.761 319.536 815.633 319.984 815.441 320.752C815.313 321.456 815.153 322.128 814.961 322.768C814.769 323.408 814.577 323.728 814.385 323.728C814.129 323.984 813.841 324.656 813.521 325.744C813.265 326.832 813.009 328.048 812.753 329.392C812.561 330.672 812.433 331.824 812.369 332.848C812.305 333.808 812.401 334.288 812.657 334.288C814.641 334.288 816.561 333.68 818.417 332.464C820.273 331.184 822.289 329.072 824.465 326.128L825.329 335.152C824.433 335.6 823.601 336.08 822.833 336.592C822.065 337.04 821.361 337.584 820.721 338.224C820.529 338.48 820.081 338.832 819.377 339.28C818.673 339.728 817.969 340.144 817.265 340.528C816.625 340.848 816.209 341.008 816.017 341.008C816.017 341.008 815.921 341.04 815.729 341.104C815.601 341.104 815.537 341.232 815.537 341.488C815.537 341.616 815.121 341.872 814.289 342.256C813.457 342.576 812.593 342.864 811.697 343.12C810.801 343.376 810.193 343.504 809.873 343.504Z" fill="#4D60EB"/>
<g clip-path="url(#clip1_4_786)">
<path d="M-30.2212 1582.02L-183.805 1203.45C-105.24 1145.99 -26.674 1088.53 57.7588 1037.84C142.192 987.159 232.492 943.25 340.589 926.041C448.686 908.832 574.58 918.323 685.982 883.891C797.383 849.459 894.292 771.105 982.569 721.439C1070.85 671.774 1150.49 650.798 1230.13 629.821L1383.72 1008.39L-30.2212 1582.02Z" fill="#F76D74"/>
<path d="M-30.2212 1582.02L-115.546 1371.7C-30.4921 1292.42 54.5614 1213.13 138.142 1202.16C221.724 1191.18 303.832 1248.51 412.707 1202.46C521.582 1156.41 657.223 1006.97 763.441 959.257C869.658 911.548 946.452 965.57 1030.71 955.661C1114.96 945.753 1206.68 871.914 1298.39 798.076L1383.72 1008.39L-30.2212 1582.02Z" fill="#F76D74"/>
</g>
<path d="M859.036 74.3794C858.265 74.472 857.486 74.3016 856.824 73.8957C856.163 73.4899 855.658 72.8724 855.391 72.1435L841.841 38.7833C841.67 38.3605 841.583 37.908 841.586 37.4516C841.589 36.9952 841.682 36.544 841.86 36.1235C842.037 35.7031 842.296 35.3217 842.621 35.0012C842.946 34.6807 843.33 34.4273 843.753 34.2556C844.176 34.0838 844.629 33.997 845.085 34.0001C845.541 34.0032 845.993 34.0962 846.413 34.2737C846.834 34.4512 847.215 34.7098 847.535 35.0347C847.856 35.3596 848.109 35.7445 848.281 36.1673L861.831 69.5275C862.158 70.3737 862.142 71.3139 861.787 72.1488C861.432 72.9836 860.766 73.6474 859.93 73.9993C859.653 74.1697 859.351 74.2978 859.036 74.3794Z" fill="#F76D74"/>
<path d="M969.357 166.634C968.75 166.709 968.133 166.624 967.568 166.388L933.627 152.056C932.829 151.663 932.211 150.98 931.9 150.146C931.589 149.312 931.608 148.391 931.954 147.572C932.299 146.752 932.945 146.095 933.759 145.736C934.573 145.376 935.494 145.342 936.332 145.639L970.274 159.926C970.997 160.215 971.603 160.737 971.995 161.41C972.387 162.082 972.543 162.867 972.438 163.639C972.332 164.41 971.972 165.124 971.413 165.667C970.855 166.21 970.131 166.55 969.357 166.634Z" fill="#F76D74"/>
<path d="M825.922 106.063C825.314 106.136 824.698 106.051 824.133 105.817L791.578 92.0881C790.73 91.7293 790.059 91.0484 789.713 90.1951C789.367 89.3418 789.374 88.386 789.733 87.538C790.092 86.69 790.773 86.0192 791.626 85.6733C792.479 85.3273 793.435 85.3346 794.283 85.6933L826.749 99.3996C827.472 99.688 828.078 100.21 828.471 100.883C828.863 101.556 829.019 102.34 828.913 103.112C828.808 103.883 828.447 104.598 827.889 105.14C827.33 105.683 826.607 106.024 825.832 106.107L825.922 106.063Z" fill="#F76D74"/>
<path d="M935.482 107.516C934.597 107.734 933.662 107.595 932.879 107.128C932.096 106.661 931.529 105.905 931.3 105.023C931.07 104.141 931.198 103.204 931.654 102.415C932.111 101.626 932.859 101.049 933.738 100.808L968.217 86.9007C968.639 86.7289 969.092 86.6421 969.548 86.6453C970.005 86.6484 970.456 86.7413 970.876 86.9188C971.297 87.0964 971.678 87.355 971.999 87.6799C972.319 88.0048 972.573 88.3896 972.744 88.8124C972.916 89.2353 973.003 89.6878 973 90.1442C972.997 90.6005 972.904 91.0518 972.726 91.4723C972.549 91.8927 972.29 92.2741 971.965 92.5946C971.64 92.9151 971.255 93.1684 970.833 93.3402L936.444 107.292C936.137 107.417 935.813 107.493 935.482 107.516Z" fill="#F76D74"/>
<path d="M792.942 165.404C792.097 165.515 791.24 165.313 790.534 164.835C789.828 164.358 789.321 163.639 789.11 162.813C788.898 161.988 788.995 161.113 789.384 160.355C789.773 159.596 790.426 159.007 791.22 158.697L823.552 145.572C823.974 145.4 824.427 145.313 824.883 145.316C825.34 145.319 825.791 145.412 826.211 145.59C826.632 145.767 827.013 146.026 827.334 146.351C827.654 146.676 827.908 147.061 828.079 147.483C828.251 147.906 828.338 148.359 828.335 148.815C828.332 149.272 828.239 149.723 828.061 150.143C827.884 150.564 827.625 150.945 827.3 151.266C826.975 151.586 826.59 151.839 826.168 152.011L793.814 165.159C793.536 165.282 793.243 165.365 792.942 165.404Z" fill="#F76D74"/>
<path d="M904.246 75.408C903.639 75.491 903.02 75.406 902.458 75.162C901.626 74.8067 900.968 74.1386 900.625 73.3018C900.282 72.4651 900.281 71.527 900.624 70.6901L914.934 36.8157C915.056 36.3326 915.281 35.8814 915.593 35.4929C915.905 35.1044 916.297 34.7879 916.743 34.5647C917.188 34.3416 917.677 34.2171 918.175 34.1999C918.673 34.1826 919.168 34.273 919.628 34.4647C920.088 34.6565 920.501 34.9452 920.84 35.3111C921.178 35.677 921.433 36.1116 921.588 36.5852C921.743 37.0587 921.794 37.5601 921.738 38.0552C921.682 38.5503 921.519 39.0275 921.262 39.4541L906.952 73.3286C906.722 73.8816 906.352 74.3648 905.877 74.7297C905.402 75.0946 904.84 75.3285 904.246 75.408Z" fill="#F76D74"/>
<path d="M844.256 217.457C843.647 217.524 843.03 217.432 842.467 217.189C841.636 216.833 840.976 216.166 840.629 215.331C840.282 214.495 840.276 213.557 840.612 212.717L854.34 180.05C854.733 179.252 855.417 178.634 856.25 178.323C857.084 178.012 858.005 178.031 858.825 178.377C859.644 178.722 860.301 179.368 860.661 180.182C861.02 180.996 861.054 181.917 860.757 182.755L847.029 215.266C846.8 215.842 846.423 216.348 845.936 216.733C845.449 217.118 844.87 217.367 844.256 217.457Z" fill="#F76D74"/>
<path d="M921.754 109.663C917.115 98.8142 908.39 90.2292 897.468 85.766C886.547 81.3028 874.306 81.3204 863.397 85.8151C852.489 90.3098 843.789 98.9198 839.181 109.781C834.573 120.643 834.429 132.882 838.778 143.85C845.62 160.463 863.373 166.209 877.259 175.98C881.529 178.999 887.522 194.36 887.522 194.36L922.715 179.871C922.715 179.871 916.164 164.734 917.058 159.591C920.01 143 928.596 126.387 921.754 109.663Z" fill="#4D60EB"/>
<path opacity="0.5" d="M921.754 109.663C917.115 98.8142 908.39 90.2292 897.468 85.766C886.547 81.3028 874.306 81.3204 863.397 85.8151C852.489 90.3098 843.789 98.9198 839.181 109.781C834.573 120.643 834.429 132.882 838.778 143.85C845.62 160.463 863.373 166.209 877.259 175.98C881.529 178.999 887.522 194.36 887.522 194.36L922.715 179.871C922.715 179.871 916.164 164.734 917.058 159.591C920.01 143 928.596 126.387 921.754 109.663Z" fill="white"/>
<path d="M917.752 196.462L902.726 202.655C900.048 203.75 897.046 203.739 894.376 202.624C891.706 201.509 889.587 199.382 888.483 196.708L923.677 182.286C924.758 184.953 924.742 187.938 923.632 190.593C922.522 193.248 920.409 195.358 917.752 196.462Z" fill="#263238"/>
<path d="M914.554 210.146C912.371 211.027 909.928 211.013 907.755 210.104C905.583 209.196 903.856 207.467 902.95 205.294L919.406 198.586C920.274 200.764 920.252 203.196 919.345 205.358C918.437 207.52 916.717 209.239 914.554 210.146Z" fill="#263238"/>
<path opacity="0.5" d="M914.554 210.146C912.371 211.027 909.928 211.013 907.755 210.104C905.583 209.196 903.856 207.467 902.95 205.294L919.406 198.586C920.274 200.764 920.252 203.196 919.345 205.358C918.437 207.52 916.717 209.239 914.554 210.146Z" fill="white"/>
<g opacity="0.7">
<path d="M917.752 196.462L902.726 202.655C900.048 203.75 897.046 203.739 894.376 202.624C891.706 201.509 889.587 199.382 888.483 196.708L923.677 182.286C924.758 184.953 924.742 187.938 923.632 190.593C922.522 193.248 920.409 195.358 917.752 196.462Z" fill="white"/>
</g>
<path opacity="0.3" d="M913.705 104.028C924.325 130.188 919.988 166.5 899.775 174.728C879.562 182.957 849.69 156.416 840.5 133.744C834.821 119.791 846.626 101.814 866.839 93.4967C887.052 85.179 908.048 90.031 913.705 104.028Z" fill="white"/>
<path opacity="0.4" d="M911.156 134.705C913.051 139.368 913.521 144.488 912.506 149.418C911.491 154.348 909.037 158.866 905.453 162.401C901.87 165.936 897.319 168.329 892.376 169.276C887.433 170.224 882.319 169.685 877.683 167.727C873.046 165.768 869.094 162.478 866.328 158.274C863.561 154.069 862.103 149.138 862.139 144.105C862.175 139.072 863.703 134.162 866.53 129.998C869.356 125.833 873.355 122.6 878.019 120.708C881.114 119.45 884.426 118.813 887.767 118.836C891.107 118.858 894.411 119.539 897.488 120.839C900.566 122.139 903.357 124.032 905.702 126.412C908.047 128.791 909.9 131.609 911.156 134.705Z" fill="white"/>
<path opacity="0.4" d="M906.393 143.582C910.105 152.727 903.822 158.518 894.677 162.229C885.532 165.941 876.99 166.165 873.279 157.02C869.567 147.875 875.895 142.218 885.04 138.506C894.185 134.794 902.659 134.437 906.393 143.582Z" fill="white"/>
<path d="M878.778 146.809L876.691 147.834L897.528 190.311L899.615 189.286L878.778 146.809Z" fill="#4D60EB"/>
<path d="M897.919 139.205L895.708 139.926L910.384 184.905L912.594 184.184L897.919 139.205Z" fill="#4D60EB"/>
<path d="M894.431 160.933L881.328 155.387L882.223 153.263L893.201 157.892L897.763 147.115L899.887 148.009L894.431 160.933Z" fill="#4D60EB"/>
<path d="M505.684 384.722C487.052 383.869 468.435 382.901 449.804 382.221C439.475 381.846 429.147 382.019 418.818 381.846C409.682 381.687 400.546 381.369 391.41 381.123C389.126 381.065 386.856 380.978 384.572 381.022C369.029 381.369 353.471 381.426 337.957 382.221C326.781 382.785 315.663 384.375 304.515 385.445C298.008 386.067 291.472 386.457 284.979 387.209C280.281 387.758 275.627 388.727 270.958 389.551C268.229 390.028 265.528 390.693 262.785 391.025C257.599 391.647 252.399 392.095 247.198 392.615C246.322 392.702 245.446 392.659 244.584 392.789C240.188 393.497 235.793 394.191 231.411 394.972C227.504 395.666 223.625 396.504 219.718 397.212C214.719 398.109 209.691 398.889 204.678 399.771C201.13 400.393 197.567 400.971 194.076 401.781C188 403.197 181.866 404.469 175.933 406.349C156.684 412.449 137.535 418.839 118.286 424.925C117.137 425.286 114.465 424.274 114.235 423.407C113.761 421.687 114.02 419.388 114.867 417.827C115.471 416.714 117.496 416.222 118.976 415.745C130.654 412.03 142.305 408.156 154.084 404.802C166.826 401.173 179.625 397.661 192.554 394.813C203.744 392.341 215.15 390.895 226.455 388.958C237.488 387.064 248.477 384.78 259.567 383.306C271.792 381.672 284.102 380.675 296.399 379.605C303.481 378.998 310.735 379.533 317.674 378.232C326.566 376.569 335.328 376.829 344.235 376.988C351.087 377.118 357.939 375.239 364.82 375.066C374.358 374.82 383.911 375.326 393.464 375.557C400.819 375.731 408.159 375.947 415.514 376.164C421.418 376.338 427.322 376.367 433.212 376.728C442.004 377.263 450.795 377.913 459.572 378.694C467.516 379.402 475.431 380.53 483.375 381.181C488.949 381.629 494.565 381.499 500.153 381.817C502.122 381.932 504.046 382.612 506 383.031C505.899 383.595 505.785 384.159 505.684 384.722Z" fill="#F76D74"/>
</g>
<defs>
<clipPath id="clip0_4_786">
<rect width="1080" height="1080" rx="74" fill="white"/>
</clipPath>
<clipPath id="clip1_4_786">
<rect width="1525.87" height="535.642" fill="white" transform="translate(-235 1077.25) rotate(-22.082)"/>
</clipPath>
</defs>
</svg>
